<svg version="1.1" id="Layer_1" xmlns="http://www.w3.org/2000/svg" xmlns:xlink="http://www.w3.org/1999/xlink" x="0px" y="0px"
	 width="100%" viewBox="0 0 1080 1080" enable-background="new 0 0 1080 1080" xml:space="preserve">
<path fill="#000000" opacity="1.000000" stroke="none" 
	d="
M949.000000,1081.000000 
	C632.666687,1081.000000 316.833344,1081.000000 1.000000,1081.000000 
	C1.000000,721.000000 1.000000,361.000000 1.000000,1.000000 
	C361.000000,1.000000 721.000000,1.000000 1081.000000,1.000000 
	C1081.000000,361.000000 1081.000000,721.000000 1081.000000,1081.000000 
	C1037.166626,1081.000000 993.333313,1081.000000 949.000000,1081.000000 
M598.362366,551.716003 
	C596.567993,548.771851 595.101685,545.547852 592.892578,542.957397 
	C590.373840,540.003845 591.442932,538.087830 593.612854,535.832703 
	C595.435669,533.938293 597.030273,531.824341 598.626221,529.926208 
	C590.821350,525.964478 587.921204,532.901001 582.674561,536.548157 
	C582.674561,529.342224 582.674561,523.266846 582.674561,517.334595 
	C579.919128,517.334595 577.664307,517.334595 575.414062,517.334595 
	C575.414062,530.039612 575.414062,542.408630 575.414062,554.758667 
	C578.101257,554.758667 580.372375,554.758667 582.998413,554.758667 
	C582.998413,551.120667 582.998413,547.715576 582.998413,542.712097 
	C585.220093,545.912170 586.716370,547.780701 587.901306,549.829346 
	C591.107300,555.372070 593.141174,556.162476 599.892578,554.078613 
	C599.542297,553.331177 599.200806,552.602539 599.637268,552.032471 
	C603.351807,555.027832 607.703491,555.662170 612.186462,554.912842 
	C616.100525,554.258606 619.176697,552.123840 619.880188,547.884338 
	C620.512268,544.075073 618.979248,541.291687 615.264099,539.817993 
	C612.794800,538.838501 610.372437,537.740906 607.929016,536.696167 
	C608.027588,536.130005 608.126160,535.563904 608.224731,534.997742 
	C610.556152,534.997742 612.926147,535.252502 615.205200,534.906982 
	C616.690735,534.681702 618.044006,533.583923 619.456543,532.877075 
	C618.211060,531.599854 617.158325,529.610779 615.675720,529.209290 
	C613.344971,528.578186 610.713867,529.159363 608.229309,528.971252 
	C603.700378,528.628357 600.934509,530.706482 600.073975,534.998779 
	C599.206665,539.325195 601.924072,542.857300 606.478027,544.092041 
	C608.589111,544.664307 610.634277,545.479797 612.709290,546.185059 
	C612.666199,546.829163 612.623169,547.473206 612.580078,548.117310 
	C610.679932,548.237366 608.353760,549.119385 606.957214,548.338562 
	C602.258118,545.711304 600.334473,547.955200 598.362366,551.716003 
M206.000702,574.518799 
	C206.000702,570.536682 206.000702,566.554626 206.000702,563.289001 
	C211.747650,558.844849 217.437057,556.761963 224.347305,556.453125 
	C228.805771,556.253784 232.974777,552.587036 233.154160,546.629517 
	C233.191223,545.399292 234.910431,543.810303 236.236450,543.105164 
	C240.217911,540.988037 243.455902,538.318237 243.937820,533.600708 
	C244.485321,528.241394 243.496170,523.321411 238.113602,520.561096 
	C235.595978,519.270020 233.900436,517.625122 233.167862,514.690735 
	C231.994919,509.992493 228.294952,507.861206 223.820984,507.020142 
	C219.567871,506.220551 215.733582,505.052246 212.707382,501.461426 
	C211.448441,499.967529 208.683487,499.327667 206.520248,499.104340 
	C202.897125,498.730286 199.137268,498.564301 195.567596,499.137268 
	C192.636078,499.607788 188.908279,500.513000 187.297913,502.592133 
	C184.687012,505.963165 181.768646,505.938629 178.290710,506.045441 
	C166.749817,506.400055 159.280670,515.977966 164.866165,526.124207 
	C163.785019,527.042236 162.771271,528.114319 161.566788,528.890503 
	C155.085403,533.067078 157.147781,545.646484 164.984528,548.442810 
	C168.045761,549.535095 171.287933,550.110901 174.415314,551.031860 
	C175.602249,551.381409 177.522522,551.836487 177.708511,552.589355 
	C179.653320,560.461487 186.184891,561.856201 193.195129,563.686829 
	C193.195129,573.236328 193.195129,582.957886 193.195129,592.689026 
	C197.730728,592.689026 201.644669,592.689026 206.000702,592.689026 
	C206.000702,586.759338 206.000702,581.135925 206.000702,574.518799 
M675.994446,521.486084 
	C674.307190,527.307678 672.619995,533.129333 670.541138,540.302307 
	C668.379517,533.626892 666.727600,528.367798 664.964844,523.146118 
	C664.036987,520.397705 664.256653,516.827637 659.597961,516.925415 
	C654.881470,517.024414 654.950439,520.536438 653.979553,523.545105 
	C652.364929,528.548950 650.617920,533.510010 648.926575,538.489075 
	C646.872742,534.871033 645.694885,531.322021 645.122803,527.677979 
	C643.690796,518.556824 641.296570,516.332642 632.844910,517.585754 
	C633.250916,519.777222 633.431702,522.017212 634.094299,524.104187 
	C636.609558,532.026855 639.467590,539.844421 641.840210,547.807678 
	C644.127502,555.484497 643.933777,555.542236 651.776001,554.590271 
	C654.200562,547.074158 656.642151,539.505371 659.519348,530.585938 
	C661.951538,538.933411 663.906250,545.932434 666.108948,552.852661 
	C666.400330,553.767944 667.877869,554.684265 668.942810,554.889038 
	C670.693054,555.225647 672.555176,554.980286 674.698181,554.980286 
	C678.568237,542.446411 682.386414,530.080444 686.500793,516.755249 
	C682.262939,517.830139 677.670044,514.556030 675.994446,521.486084 
M339.557495,541.112000 
	C340.882294,544.037903 342.207092,546.963867 343.516998,549.856873 
	C347.961639,550.442383 351.681885,550.445190 353.309784,544.721802 
	C354.381317,540.954468 357.194794,537.682556 359.228210,534.188843 
	C359.503510,534.248901 359.778839,534.309021 360.054138,534.369080 
	C360.054138,541.083191 360.054138,547.797241 360.054138,554.625977 
	C362.939667,554.625977 365.305481,554.625977 367.709961,554.625977 
	C367.709961,542.331360 367.709961,530.409729 367.709961,518.246460 
	C364.477386,518.246460 361.538940,518.246460 358.830170,518.246460 
	C355.016815,525.489990 351.297791,532.554260 347.434967,539.891785 
	C344.200836,534.135498 340.504517,529.215454 338.574341,523.679626 
	C336.412292,517.478760 332.665161,517.206848 327.324585,518.475159 
	C327.324585,530.515320 327.324585,542.567200 327.324585,554.758606 
	C329.576904,554.758606 331.503540,554.758606 334.223145,554.758606 
	C334.223145,547.640747 334.223145,540.722107 334.223145,533.803467 
	C334.521484,533.805603 334.819824,533.807739 335.118164,533.809875 
	C336.428436,536.057312 337.738708,538.304688 339.557495,541.112000 
M774.863831,518.382751 
	C767.423462,517.731628 759.983093,517.080566 752.399841,516.416931 
	C752.399841,529.975098 752.399841,542.312378 752.399841,554.999146 
	C757.427246,554.999146 762.057983,555.009338 766.688660,554.997009 
	C776.575623,554.970642 783.034912,550.336487 785.499207,540.914978 
	C787.623596,532.792725 784.330078,521.648315 774.863831,518.382751 
M528.429321,554.998413 
	C538.177429,555.894897 547.401794,546.771484 547.227051,535.508667 
	C547.039368,523.412048 536.611633,516.600830 527.440796,516.915771 
	C516.649109,517.286377 509.034332,524.741028 509.001801,535.744690 
	C508.965759,547.935242 515.695496,554.928772 528.429321,554.998413 
M872.980957,556.992981 
	C873.631287,549.355225 872.542603,547.891052 864.177917,547.929321 
	C861.818726,547.940125 859.455750,547.100952 857.054443,546.643982 
	C861.755493,544.709229 866.790833,543.973816 869.627197,541.081787 
	C872.297852,538.358826 872.650330,533.362305 874.059204,529.259521 
	C868.277039,528.803955 863.171387,527.909851 858.111938,528.121033 
	C850.959167,528.419678 846.861816,533.569092 850.032837,540.546814 
	C850.442078,541.447266 851.276245,542.473206 851.104187,543.265320 
	C850.250427,547.197571 848.470703,551.048889 848.338501,554.973145 
	C848.257690,557.370422 849.935547,560.820190 851.918823,562.100098 
	C857.067444,565.422729 868.769592,562.626099 872.980957,556.992981 
M717.827026,554.654236 
	C718.735168,554.673096 719.652771,554.784790 720.549805,554.694031 
	C723.692200,554.376160 727.158508,554.719727 729.898926,553.479797 
	C736.223572,550.618164 736.203552,544.592041 736.017883,538.679993 
	C735.778320,531.051025 729.595398,526.327393 722.310425,528.345093 
	C721.306946,528.623047 720.325500,528.980103 718.754639,529.487610 
	C718.754639,525.045776 718.754639,521.137817 718.754639,517.284363 
	C716.016418,517.284363 713.758728,517.284363 711.296265,517.284363 
	C711.296265,529.930542 711.296265,542.294006 711.296265,554.926086 
	C713.389099,554.926086 715.191711,554.926086 717.827026,554.654236 
M807.331299,541.996765 
	C808.776184,541.899109 810.221130,541.801392 811.596741,541.708374 
	C812.526672,533.379517 810.487000,529.786133 804.147827,528.137268 
	C797.772644,526.479004 790.341064,529.356873 788.259399,534.781067 
	C785.458435,542.079468 786.566650,548.186951 792.258789,552.533569 
	C798.002502,556.919556 808.382690,555.525146 811.984436,550.076294 
	C811.301392,548.772644 810.560669,547.358887 809.856628,546.015137 
	C796.517944,548.639099 796.517944,548.639099 795.914246,541.997192 
	C799.418091,541.997192 802.901733,541.997192 807.331299,541.996765 
M699.059143,528.001709 
	C687.362244,527.996704 682.961731,531.940613 683.001648,542.393311 
	C683.023376,548.079712 685.967407,552.539429 690.701965,554.058167 
	C698.251770,556.479919 704.103149,555.053101 707.802490,549.888184 
	C704.470703,545.618713 704.470703,545.618713 701.284851,547.396484 
	C695.498535,550.625305 692.427612,549.004395 691.531372,541.754272 
	C696.992371,541.754272 702.395935,541.754272 707.623840,541.754272 
	C709.162781,534.420837 705.970947,530.333679 699.059143,528.001709 
M443.541260,531.971863 
	C439.872559,536.026489 438.686493,545.411499 441.324097,549.515930 
	C444.352539,554.228638 451.649872,555.950256 458.108917,554.541077 
	C466.948517,552.612488 469.360474,541.236267 465.296417,534.716003 
	C461.117584,528.011658 451.210571,526.510193 443.541260,531.971863 
M480.891510,528.997070 
	C477.385773,528.997070 473.880035,528.997070 470.426270,528.997070 
	C470.426270,538.043640 470.426270,546.413574 470.426270,554.646484 
	C473.105225,554.646484 475.354156,554.646484 477.999298,554.646484 
	C477.999298,549.670776 478.168274,545.028870 477.941681,540.406311 
	C477.782318,537.155029 478.358429,534.462280 482.098572,534.591614 
	C485.784515,534.719055 485.987946,537.823303 485.995331,540.690002 
	C486.007233,545.304993 485.998505,549.919922 485.998505,554.606323 
	C488.950348,554.606323 491.314758,554.606323 493.999390,554.606323 
	C493.999390,549.913635 493.999146,545.604492 493.999420,541.295410 
	C494.000122,530.567993 492.443268,529.001587 480.891510,528.997070 
M558.602112,529.001404 
	C556.067017,529.518860 553.412598,529.742188 551.055237,530.697998 
	C550.107178,531.082397 549.810608,533.073547 549.217529,534.333374 
	C550.486877,534.882874 551.747192,535.855225 553.027710,535.882568 
	C554.939697,535.923401 556.910645,534.883545 558.772461,535.083923 
	C560.359619,535.254700 561.828430,536.526123 563.349548,537.310669 
	C563.106323,537.812561 562.863098,538.314453 562.619812,538.816345 
	C561.138367,538.884338 559.551575,538.633179 558.195374,539.080688 
	C554.271729,540.375366 549.229736,540.581055 548.197388,545.681702 
	C547.736267,547.959839 548.335022,552.066589 549.743408,552.773987 
	C552.695984,554.256958 556.493042,554.156006 559.964844,554.461243 
	C561.402344,554.587585 562.922485,553.802856 564.355835,553.941467 
	C566.358276,554.135132 568.314636,554.805298 570.997986,555.438416 
	C570.997986,550.002319 570.955933,545.375916 571.006470,540.750610 
	C571.120728,530.303528 566.916199,528.176331 558.602112,529.001404 
M881.596252,528.226440 
	C879.850220,528.226440 878.104248,528.226440 876.419189,528.226440 
	C876.419189,537.035095 876.419189,545.409729 876.419189,553.659790 
	C879.093262,553.659790 881.344543,553.659790 884.000977,553.659790 
	C884.000977,548.701172 884.046204,544.070312 883.984924,539.440918 
	C883.944885,536.418274 884.744202,534.196594 888.275818,534.094849 
	C891.983398,533.987915 891.929260,536.707092 891.972290,539.178894 
	C892.055542,543.957825 891.996704,548.739258 891.996704,553.620972 
	C894.938232,553.620972 897.302917,553.620972 899.980225,553.620972 
	C899.980225,547.612793 900.149414,541.971008 899.929932,536.344360 
	C899.732727,531.289978 896.088989,527.977905 891.022522,528.039734 
	C888.080444,528.075562 885.143188,528.505066 881.596252,528.226440 
M425.941071,549.021851 
	C427.232025,539.866333 419.331818,539.665039 413.830505,537.126648 
	C413.853027,536.551270 413.875549,535.975891 413.898041,535.400574 
	C417.539398,535.177368 421.180756,534.954163 426.294037,534.640808 
	C424.660645,532.573425 423.812439,530.418884 422.407349,529.956482 
	C419.837921,529.110840 416.942657,529.097473 414.177063,529.040771 
	C409.464996,528.944214 405.272247,532.069885 405.057343,536.029358 
	C404.798523,540.798340 408.148865,542.728027 412.095825,544.006348 
	C414.141815,544.669128 416.145325,545.463074 418.404297,546.283569 
	C415.612793,551.214294 412.933075,548.519958 410.101501,547.788330 
	C408.667328,547.417786 406.700348,548.542053 405.216431,549.406250 
	C404.916595,549.580811 405.306580,552.116882 406.059021,552.732239 
	C411.304626,557.022278 421.855072,555.335632 425.941071,549.021851 
M922.710938,543.342102 
	C920.039246,541.671753 917.310547,540.084045 914.719482,538.296814 
	C913.385864,537.377014 912.297424,536.101746 911.098206,534.987000 
	C912.823547,534.691589 914.843689,533.679382 916.215393,534.243652 
	C919.502808,535.596008 921.533386,535.015991 923.632202,530.442505 
	C919.317505,529.562683 915.513062,528.594360 911.648804,528.050171 
	C907.296021,527.437195 904.348511,530.126343 903.206360,533.735718 
	C901.902832,537.855042 903.201294,541.521729 908.049622,543.005005 
	C910.451416,543.739868 912.731995,544.870789 915.158386,545.859558 
	C912.901489,548.756348 912.948914,548.505127 907.737976,547.520874 
	C906.261841,547.242065 904.420349,548.897644 902.746399,549.666138 
	C903.895203,551.098267 904.786621,553.278198 906.254395,553.783264 
	C908.340088,554.500916 910.849609,553.997742 913.178040,553.996887 
	C920.923950,553.994019 923.111206,551.775452 922.710938,543.342102 
M401.273590,552.871643 
	C409.957092,540.964355 397.724670,540.224304 391.855743,535.654114 
	C394.803619,534.992615 397.429749,535.147583 400.022003,534.918762 
	C401.106201,534.823059 402.717651,534.119446 402.995575,533.314575 
	C403.275879,532.502747 402.375458,530.436218 401.688354,530.283020 
	C398.591339,529.592590 395.390594,529.118713 392.219299,529.068481 
	C387.524597,528.994080 384.216522,531.907959 384.008148,535.796143 
	C383.761871,540.391602 386.121979,542.841125 391.131836,544.117188 
	C393.058167,544.607849 394.688538,546.260315 396.453796,547.383423 
	C396.181061,547.947388 395.908325,548.511414 395.635590,549.075378 
	C393.741669,548.854065 391.681488,549.035889 389.984741,548.336243 
	C384.786926,546.193115 384.778595,546.094055 383.402435,552.101196 
	C388.891052,555.551453 394.527222,556.492615 401.273590,552.871643 
M815.492432,531.210205 
	C812.094055,536.875305 813.588379,541.296509 819.611206,543.421265 
	C820.973633,543.901917 822.451355,544.215759 823.642944,544.973022 
	C824.720642,545.657959 825.479980,546.843811 826.379639,547.808777 
	C826.021484,548.277222 825.663269,548.745667 825.305054,549.214172 
	C823.446350,548.874023 821.596680,548.466492 819.726135,548.214233 
	C818.107300,547.995911 816.410461,547.675781 814.860962,547.978516 
	C814.286133,548.090881 813.439880,550.465942 813.734192,550.748047 
	C815.075623,552.033569 816.658264,553.446655 818.382446,553.858765 
	C820.582886,554.384766 823.002808,554.005249 825.328064,553.993774 
	C830.199829,553.969849 834.696106,550.906067 834.636230,546.549011 
	C834.582031,542.603882 832.008850,539.773010 827.649109,538.881531 
	C825.614441,538.465515 823.769653,537.121155 821.828857,536.192810 
	C824.859680,530.807800 832.071960,539.047180 833.808594,531.538330 
	C827.328979,526.697205 822.287231,526.547791 815.492432,531.210205 
M284.999512,531.500000 
	C284.999512,514.777100 284.999512,498.054230 284.999512,481.331329 
	C284.542511,481.342865 284.085480,481.354401 283.628479,481.365936 
	C283.628479,520.791870 283.628479,560.217773 283.628479,599.643677 
	C284.085480,599.644592 284.542511,599.645508 284.999512,599.646362 
	C284.999512,577.264282 284.999512,554.882141 284.999512,531.500000 
M371.967621,537.574158 
	C371.967621,543.298096 371.967621,549.022095 371.967621,554.627380 
	C375.457825,554.627380 378.026001,554.627380 380.588318,554.627380 
	C380.588318,545.908813 380.588318,537.566711 380.588318,529.367676 
	C377.601318,529.367676 375.029572,529.367676 372.032013,529.367676 
	C372.032013,532.020935 372.032013,534.312866 371.967621,537.574158 
M429.000763,546.435913 
	C429.000763,549.197632 429.000763,551.959351 429.000763,554.704651 
	C432.005249,554.704651 434.261475,554.704651 436.625366,554.704651 
	C436.625366,546.033325 436.625366,537.658386 436.625366,529.299316 
	C433.987274,529.299316 431.731171,529.299316 429.000702,529.299316 
	C429.000702,534.873474 429.000702,540.162415 429.000763,546.435913 
M842.361511,528.011780 
	C840.748535,528.011780 839.135620,528.011780 837.277832,528.011780 
	C837.277832,536.785767 837.277832,545.125000 837.277832,553.638550 
	C839.935120,553.638550 842.284424,553.638550 844.980530,553.638550 
	C844.980530,545.700012 845.033142,538.114746 844.905884,530.532532 
	C844.891907,529.696899 843.847534,528.878601 842.361511,528.011780 
M836.937500,522.733704 
	C838.986145,526.571777 842.326355,525.251892 844.985535,524.151672 
	C845.842834,523.796936 846.092346,520.606506 845.708862,518.920532 
	C845.028625,515.929932 842.049438,515.036743 839.918335,516.250122 
	C838.242737,517.204163 837.635864,520.035095 836.937500,522.733704 
M372.005798,521.531372 
	C371.856171,524.327454 372.371490,526.978088 375.928680,525.855286 
	C377.846161,525.250061 380.010223,523.528870 380.813202,521.747803 
	C381.934235,519.261047 380.298309,517.281738 377.462830,517.086487 
	C374.868469,516.907959 371.774078,516.362427 372.005798,521.531372 
M431.016388,517.083435 
	C427.778473,518.624207 426.891388,521.199524 429.137024,523.846802 
	C430.196838,525.096252 433.359772,526.157776 434.351196,525.491455 
	C435.801727,524.516479 436.718597,521.950989 436.856628,519.992432 
	C437.111237,516.379639 434.089661,517.096375 431.016388,517.083435 
z"/>
<path fill="#14A876" opacity="1.000000" stroke="none" 
	d="
M206.000702,575.015625 
	C206.000702,581.135925 206.000702,586.759338 206.000702,592.689026 
	C201.644669,592.689026 197.730728,592.689026 193.195129,592.689026 
	C193.195129,582.957886 193.195129,573.236328 193.195129,563.686829 
	C186.184891,561.856201 179.653320,560.461487 177.708511,552.589355 
	C177.522522,551.836487 175.602249,551.381409 174.415314,551.031860 
	C171.287933,550.110901 168.045761,549.535095 164.984528,548.442810 
	C157.147781,545.646484 155.085403,533.067078 161.566788,528.890503 
	C162.771271,528.114319 163.785019,527.042236 164.866165,526.124207 
	C159.280670,515.977966 166.749817,506.400055 178.290710,506.045441 
	C181.768646,505.938629 184.687012,505.963165 187.297913,502.592133 
	C188.908279,500.513000 192.636078,499.607788 195.567596,499.137268 
	C199.137268,498.564301 202.897125,498.730286 206.520248,499.104340 
	C208.683487,499.327667 211.448441,499.967529 212.707382,501.461426 
	C215.733582,505.052246 219.567871,506.220551 223.820984,507.020142 
	C228.294952,507.861206 231.994919,509.992493 233.167862,514.690735 
	C233.900436,517.625122 235.595978,519.270020 238.113602,520.561096 
	C243.496170,523.321411 244.485321,528.241394 243.937820,533.600708 
	C243.455902,538.318237 240.217911,540.988037 236.236450,543.105164 
	C234.910431,543.810303 233.191223,545.399292 233.154160,546.629517 
	C232.974777,552.587036 228.805771,556.253784 224.347305,556.453125 
	C217.437057,556.761963 211.747650,558.844849 206.000702,563.289001 
	C206.000702,566.554626 206.000702,570.536682 206.000702,575.015625 
z"/>
<path fill="#13A976" opacity="1.000000" stroke="none" 
	d="
M676.041870,521.072754 
	C677.670044,514.556030 682.262939,517.830139 686.500793,516.755249 
	C682.386414,530.080444 678.568237,542.446411 674.698181,554.980286 
	C672.555176,554.980286 670.693054,555.225647 668.942810,554.889038 
	C667.877869,554.684265 666.400330,553.767944 666.108948,552.852661 
	C663.906250,545.932434 661.951538,538.933411 659.519348,530.585938 
	C656.642151,539.505371 654.200562,547.074158 651.776001,554.590271 
	C643.933777,555.542236 644.127502,555.484497 641.840210,547.807678 
	C639.467590,539.844421 636.609558,532.026855 634.094299,524.104187 
	C633.431702,522.017212 633.250916,519.777222 632.844910,517.585754 
	C641.296570,516.332642 643.690796,518.556824 645.122803,527.677979 
	C645.694885,531.322021 646.872742,534.871033 648.926575,538.489075 
	C650.617920,533.510010 652.364929,528.548950 653.979553,523.545105 
	C654.950439,520.536438 654.881470,517.024414 659.597961,516.925415 
	C664.256653,516.827637 664.036987,520.397705 664.964844,523.146118 
	C666.727600,528.367798 668.379517,533.626892 670.541138,540.302307 
	C672.619995,533.129333 674.307190,527.307678 676.041870,521.072754 
z"/>
<path fill="#13A876" opacity="1.000000" stroke="none" 
	d="
M339.303223,540.832031 
	C337.738708,538.304688 336.428436,536.057312 335.118164,533.809875 
	C334.819824,533.807739 334.521484,533.805603 334.223145,533.803467 
	C334.223145,540.722107 334.223145,547.640747 334.223145,554.758606 
	C331.503540,554.758606 329.576904,554.758606 327.324585,554.758606 
	C327.324585,542.567200 327.324585,530.515320 327.324585,518.475159 
	C332.665161,517.206848 336.412292,517.478760 338.574341,523.679626 
	C340.504517,529.215454 344.200836,534.135498 347.434967,539.891785 
	C351.297791,532.554260 355.016815,525.489990 358.830170,518.246460 
	C361.538940,518.246460 364.477386,518.246460 367.709961,518.246460 
	C367.709961,530.409729 367.709961,542.331360 367.709961,554.625977 
	C365.305481,554.625977 362.939667,554.625977 360.054138,554.625977 
	C360.054138,547.797241 360.054138,541.083191 360.054138,534.369080 
	C359.778839,534.309021 359.503510,534.248901 359.228210,534.188843 
	C357.194794,537.682556 354.381317,540.954468 353.309784,544.721802 
	C351.681885,550.445190 347.961639,550.442383 343.516998,549.856873 
	C342.207092,546.963867 340.882294,544.037903 339.303223,540.832031 
z"/>
<path fill="#14A876" opacity="1.000000" stroke="none" 
	d="
M775.191833,518.617859 
	C784.330078,521.648315 787.623596,532.792725 785.499207,540.914978 
	C783.034912,550.336487 776.575623,554.970642 766.688660,554.997009 
	C762.057983,555.009338 757.427246,554.999146 752.399841,554.999146 
	C752.399841,542.312378 752.399841,529.975098 752.399841,516.416931 
	C759.983093,517.080566 767.423462,517.731628 775.191833,518.617859 
M776.195251,530.618713 
	C774.237244,524.703613 768.341919,521.989380 761.387451,523.753601 
	C761.387451,532.111328 761.387451,540.447388 761.387451,549.605286 
	C765.082886,548.693115 768.417358,548.410217 771.246460,547.064819 
	C778.179504,543.767761 777.112061,537.333191 776.195251,530.618713 
z"/>
<path fill="#13A876" opacity="1.000000" stroke="none" 
	d="
M527.979309,554.998413 
	C515.695496,554.928772 508.965759,547.935242 509.001801,535.744690 
	C509.034332,524.741028 516.649109,517.286377 527.440796,516.915771 
	C536.611633,516.600830 547.039368,523.412048 547.227051,535.508667 
	C547.401794,546.771484 538.177429,555.894897 527.979309,554.998413 
M538.952637,536.447144 
	C538.631104,535.178589 538.314087,533.908813 537.987244,532.641602 
	C536.645142,527.438232 531.323792,523.664856 526.781494,524.692566 
	C520.329590,526.152344 516.546631,531.374939 517.671631,537.269287 
	C519.104370,544.776489 522.986145,548.112854 528.902832,547.549805 
	C535.352966,546.935974 537.008423,542.065125 538.952637,536.447144 
z"/>
<path fill="#13A875" opacity="1.000000" stroke="none" 
	d="
M872.949585,557.409241 
	C868.769592,562.626099 857.067444,565.422729 851.918823,562.100098 
	C849.935547,560.820190 848.257690,557.370422 848.338501,554.973145 
	C848.470703,551.048889 850.250427,547.197571 851.104187,543.265320 
	C851.276245,542.473206 850.442078,541.447266 850.032837,540.546814 
	C846.861816,533.569092 850.959167,528.419678 858.111938,528.121033 
	C863.171387,527.909851 868.277039,528.803955 874.059204,529.259521 
	C872.650330,533.362305 872.297852,538.358826 869.627197,541.081787 
	C866.790833,543.973816 861.755493,544.709229 857.054443,546.643982 
	C859.455750,547.100952 861.818726,547.940125 864.177917,547.929321 
	C872.542603,547.891052 873.631287,549.355225 872.949585,557.409241 
M855.829224,556.838989 
	C859.433899,557.362549 863.398254,559.383423 865.992493,554.541443 
	C863.970093,553.985107 862.252441,553.177490 860.508606,553.116211 
	C858.233459,553.036316 855.246399,552.434448 855.829224,556.838989 
M863.276001,535.894104 
	C860.641968,532.718140 858.383911,533.422607 856.275757,536.567261 
	C858.834229,539.708740 861.278381,540.053101 863.276001,535.894104 
z"/>
<path fill="#14A876" opacity="1.000000" stroke="none" 
	d="
M717.410706,554.790161 
	C715.191711,554.926086 713.389099,554.926086 711.296265,554.926086 
	C711.296265,542.294006 711.296265,529.930542 711.296265,517.284363 
	C713.758728,517.284363 716.016418,517.284363 718.754639,517.284363 
	C718.754639,521.137817 718.754639,525.045776 718.754639,529.487610 
	C720.325500,528.980103 721.306946,528.623047 722.310425,528.345093 
	C729.595398,526.327393 735.778320,531.051025 736.017883,538.679993 
	C736.203552,544.592041 736.223572,550.618164 729.898926,553.479797 
	C727.158508,554.719727 723.692200,554.376160 720.549805,554.694031 
	C719.652771,554.784790 718.735168,554.673096 717.410706,554.790161 
M727.997314,539.762756 
	C727.732178,536.614868 727.131531,533.677307 722.973999,534.044250 
	C719.156982,534.381042 718.871277,537.164795 718.992371,540.167480 
	C719.045532,541.485413 718.977234,542.807861 718.991699,544.127869 
	C719.016968,546.437683 718.761230,549.533875 722.177917,548.795349 
	C724.306763,548.335144 726.266602,546.246521 727.843140,544.479126 
	C728.506104,543.735901 727.983521,541.935242 727.997314,539.762756 
z"/>
<path fill="#13A875" opacity="1.000000" stroke="none" 
	d="
M598.859314,551.873901 
	C599.200806,552.602539 599.542297,553.331177 599.892578,554.078613 
	C593.141174,556.162476 591.107300,555.372070 587.901306,549.829346 
	C586.716370,547.780701 585.220093,545.912170 582.998413,542.712097 
	C582.998413,547.715576 582.998413,551.120667 582.998413,554.758667 
	C580.372375,554.758667 578.101257,554.758667 575.414062,554.758667 
	C575.414062,542.408630 575.414062,530.039612 575.414062,517.334595 
	C577.664307,517.334595 579.919128,517.334595 582.674561,517.334595 
	C582.674561,523.266846 582.674561,529.342224 582.674561,536.548157 
	C587.921204,532.901001 590.821350,525.964478 598.626221,529.926208 
	C597.030273,531.824341 595.435669,533.938293 593.612854,535.832703 
	C591.442932,538.087830 590.373840,540.003845 592.892578,542.957397 
	C595.101685,545.547852 596.567993,548.771851 598.643921,551.828247 
	C598.925415,551.940552 598.859314,551.873901 598.859314,551.873901 
z"/>
<path fill="#13A977" opacity="1.000000" stroke="none" 
	d="
M806.858337,541.996948 
	C802.901733,541.997192 799.418091,541.997192 795.914246,541.997192 
	C796.517944,548.639099 796.517944,548.639099 809.856628,546.015137 
	C810.560669,547.358887 811.301392,548.772644 811.984436,550.076294 
	C808.382690,555.525146 798.002502,556.919556 792.258789,552.533569 
	C786.566650,548.186951 785.458435,542.079468 788.259399,534.781067 
	C790.341064,529.356873 797.772644,526.479004 804.147827,528.137268 
	C810.487000,529.786133 812.526672,533.379517 811.596741,541.708374 
	C810.221130,541.801392 808.776184,541.899109 806.858337,541.996948 
z"/>
<path fill="#13A876" opacity="1.000000" stroke="none" 
	d="
M699.480164,527.977295 
	C705.970947,530.333679 709.162781,534.420837 707.623840,541.754272 
	C702.395935,541.754272 696.992371,541.754272 691.531372,541.754272 
	C692.427612,549.004395 695.498535,550.625305 701.284851,547.396484 
	C704.470703,545.618713 704.470703,545.618713 707.802490,549.888184 
	C704.103149,555.053101 698.251770,556.479919 690.701965,554.058167 
	C685.967407,552.539429 683.023376,548.079712 683.001648,542.393311 
	C682.961731,531.940613 687.362244,527.996704 699.480164,527.977295 
z"/>
<path fill="#13A875" opacity="1.000000" stroke="none" 
	d="
M443.812775,531.687805 
	C451.210571,526.510193 461.117584,528.011658 465.296417,534.716003 
	C469.360474,541.236267 466.948517,552.612488 458.108917,554.541077 
	C451.649872,555.950256 444.352539,554.228638 441.324097,549.515930 
	C438.686493,545.411499 439.872559,536.026489 443.812775,531.687805 
M456.155426,548.277344 
	C456.694183,544.366028 457.312256,540.461792 457.660645,536.533630 
	C457.699524,536.095032 456.192383,535.072754 455.426697,535.096863 
	C453.462006,535.158752 449.971680,535.325073 449.817688,536.038269 
	C449.103668,539.345703 448.691101,542.989380 449.399139,546.245422 
	C449.948303,548.770874 452.524231,550.360901 456.155426,548.277344 
z"/>
<path fill="#14A876" opacity="1.000000" stroke="none" 
	d="
M481.334534,528.998291 
	C492.443268,529.001587 494.000122,530.567993 493.999420,541.295410 
	C493.999146,545.604492 493.999390,549.913635 493.999390,554.606323 
	C491.314758,554.606323 488.950348,554.606323 485.998505,554.606323 
	C485.998505,549.919922 486.007233,545.304993 485.995331,540.690002 
	C485.987946,537.823303 485.784515,534.719055 482.098572,534.591614 
	C478.358429,534.462280 477.782318,537.155029 477.941681,540.406311 
	C478.168274,545.028870 477.999298,549.670776 477.999298,554.646484 
	C475.354156,554.646484 473.105225,554.646484 470.426270,554.646484 
	C470.426270,546.413574 470.426270,538.043640 470.426270,528.997070 
	C473.880035,528.997070 477.385773,528.997070 481.334534,528.998291 
z"/>
<path fill="#13A876" opacity="1.000000" stroke="none" 
	d="
M559.052979,529.001343 
	C566.916199,528.176331 571.120728,530.303528 571.006470,540.750610 
	C570.955933,545.375916 570.997986,550.002319 570.997986,555.438416 
	C568.314636,554.805298 566.358276,554.135132 564.355835,553.941467 
	C562.922485,553.802856 561.402344,554.587585 559.964844,554.461243 
	C556.493042,554.156006 552.695984,554.256958 549.743408,552.773987 
	C548.335022,552.066589 547.736267,547.959839 548.197388,545.681702 
	C549.229736,540.581055 554.271729,540.375366 558.195374,539.080688 
	C559.551575,538.633179 561.138367,538.884338 562.619812,538.816345 
	C562.863098,538.314453 563.106323,537.812561 563.349548,537.310669 
	C561.828430,536.526123 560.359619,535.254700 558.772461,535.083923 
	C556.910645,534.883545 554.939697,535.923401 553.027710,535.882568 
	C551.747192,535.855225 550.486877,534.882874 549.217529,534.333374 
	C549.810608,533.073547 550.107178,531.082397 551.055237,530.697998 
	C553.412598,529.742188 556.067017,529.518860 559.052979,529.001343 
M556.995728,549.357300 
	C560.105591,549.201782 562.829041,548.578552 562.907043,543.901184 
	C561.017456,544.240967 559.084961,544.115967 557.812744,544.972046 
	C556.856812,545.615295 553.274414,546.418701 556.995728,549.357300 
z"/>
<path fill="#14A876" opacity="1.000000" stroke="none" 
	d="
M881.900024,528.491943 
	C885.143188,528.505066 888.080444,528.075562 891.022522,528.039734 
	C896.088989,527.977905 899.732727,531.289978 899.929932,536.344360 
	C900.149414,541.971008 899.980225,547.612793 899.980225,553.620972 
	C897.302917,553.620972 894.938232,553.620972 891.996704,553.620972 
	C891.996704,548.739258 892.055542,543.957825 891.972290,539.178894 
	C891.929260,536.707092 891.983398,533.987915 888.275818,534.094849 
	C884.744202,534.196594 883.944885,536.418274 883.984924,539.440918 
	C884.046204,544.070312 884.000977,548.701172 884.000977,553.659790 
	C881.344543,553.659790 879.093262,553.659790 876.419189,553.659790 
	C876.419189,545.409729 876.419189,537.035095 876.419189,528.226440 
	C878.104248,528.226440 879.850220,528.226440 881.900024,528.491943 
z"/>
<path fill="#13A977" opacity="1.000000" stroke="none" 
	d="
M425.792236,549.402954 
	C421.855072,555.335632 411.304626,557.022278 406.059021,552.732239 
	C405.306580,552.116882 404.916595,549.580811 405.216431,549.406250 
	C406.700348,548.542053 408.667328,547.417786 410.101501,547.788330 
	C412.933075,548.519958 415.612793,551.214294 418.404297,546.283569 
	C416.145325,545.463074 414.141815,544.669128 412.095825,544.006348 
	C408.148865,542.728027 404.798523,540.798340 405.057343,536.029358 
	C405.272247,532.069885 409.464996,528.944214 414.177063,529.040771 
	C416.942657,529.097473 419.837921,529.110840 422.407349,529.956482 
	C423.812439,530.418884 424.660645,532.573425 426.294037,534.640808 
	C421.180756,534.954163 417.539398,535.177368 413.898041,535.400574 
	C413.875549,535.975891 413.853027,536.551270 413.830505,537.126648 
	C419.331818,539.665039 427.232025,539.866333 425.792236,549.402954 
z"/>
<path fill="#13A876" opacity="1.000000" stroke="none" 
	d="
M922.819336,543.733093 
	C923.111206,551.775452 920.923950,553.994019 913.178040,553.996887 
	C910.849609,553.997742 908.340088,554.500916 906.254395,553.783264 
	C904.786621,553.278198 903.895203,551.098267 902.746399,549.666138 
	C904.420349,548.897644 906.261841,547.242065 907.737976,547.520874 
	C912.948914,548.505127 912.901489,548.756348 915.158386,545.859558 
	C912.731995,544.870789 910.451416,543.739868 908.049622,543.005005 
	C903.201294,541.521729 901.902832,537.855042 903.206360,533.735718 
	C904.348511,530.126343 907.296021,527.437195 911.648804,528.050171 
	C915.513062,528.594360 919.317505,529.562683 923.632202,530.442505 
	C921.533386,535.015991 919.502808,535.596008 916.215393,534.243652 
	C914.843689,533.679382 912.823547,534.691589 911.098206,534.987061 
	C912.297424,536.101746 913.385864,537.377014 914.719482,538.296814 
	C917.310547,540.084045 920.039246,541.671753 922.819336,543.733093 
z"/>
<path fill="#13A977" opacity="1.000000" stroke="none" 
	d="
M400.887085,552.990967 
	C394.527222,556.492615 388.891052,555.551453 383.402435,552.101196 
	C384.778595,546.094055 384.786926,546.193115 389.984741,548.336243 
	C391.681488,549.035889 393.741669,548.854065 395.635590,549.075378 
	C395.908325,548.511414 396.181061,547.947388 396.453796,547.383423 
	C394.688538,546.260315 393.058167,544.607849 391.131836,544.117188 
	C386.121979,542.841125 383.761871,540.391602 384.008148,535.796143 
	C384.216522,531.907959 387.524597,528.994080 392.219299,529.068481 
	C395.390594,529.118713 398.591339,529.592590 401.688354,530.283020 
	C402.375458,530.436218 403.275879,532.502747 402.995575,533.314575 
	C402.717651,534.119446 401.106201,534.823059 400.022003,534.918762 
	C397.429749,535.147583 394.803619,534.992615 391.855743,535.654114 
	C397.724670,540.224304 409.957092,540.964355 400.887085,552.990967 
z"/>
<path fill="#13A977" opacity="1.000000" stroke="none" 
	d="
M815.876953,531.077209 
	C822.287231,526.547791 827.328979,526.697205 833.808594,531.538330 
	C832.071960,539.047180 824.859680,530.807800 821.828857,536.192810 
	C823.769653,537.121155 825.614441,538.465515 827.649109,538.881531 
	C832.008850,539.773010 834.582031,542.603882 834.636230,546.549011 
	C834.696106,550.906067 830.199829,553.969849 825.328064,553.993774 
	C823.002808,554.005249 820.582886,554.384766 818.382446,553.858765 
	C816.658264,553.446655 815.075623,552.033569 813.734192,550.748047 
	C813.439880,550.465942 814.286133,548.090881 814.860962,547.978516 
	C816.410461,547.675781 818.107300,547.995911 819.726135,548.214233 
	C821.596680,548.466492 823.446350,548.874023 825.305054,549.214172 
	C825.663269,548.745667 826.021484,548.277222 826.379639,547.808777 
	C825.479980,546.843811 824.720642,545.657959 823.642944,544.973022 
	C822.451355,544.215759 820.973633,543.901917 819.611206,543.421265 
	C813.588379,541.296509 812.094055,536.875305 815.876953,531.077209 
z"/>
<path fill="#13A976" opacity="1.000000" stroke="none" 
	d="
M598.958618,551.973755 
	C600.334473,547.955200 602.258118,545.711304 606.957214,548.338562 
	C608.353760,549.119385 610.679932,548.237366 612.580078,548.117310 
	C612.623169,547.473206 612.666199,546.829163 612.709290,546.185059 
	C610.634277,545.479797 608.589111,544.664307 606.478027,544.092041 
	C601.924072,542.857300 599.206665,539.325195 600.073975,534.998779 
	C600.934509,530.706482 603.700378,528.628357 608.229309,528.971252 
	C610.713867,529.159363 613.344971,528.578186 615.675720,529.209290 
	C617.158325,529.610779 618.211060,531.599854 619.456543,532.877075 
	C618.044006,533.583923 616.690735,534.681702 615.205200,534.906982 
	C612.926147,535.252502 610.556152,534.997742 608.224731,534.997742 
	C608.126160,535.563904 608.027588,536.130005 607.929016,536.696167 
	C610.372437,537.740906 612.794800,538.838501 615.264099,539.817993 
	C618.979248,541.291687 620.512268,544.075073 619.880188,547.884338 
	C619.176697,552.123840 616.100525,554.258606 612.186462,554.912842 
	C607.703491,555.662170 603.351807,555.027832 599.248291,551.953186 
	C598.859314,551.873901 598.925415,551.940552 598.958618,551.973755 
z"/>
<path fill="#14A876" opacity="1.000000" stroke="none" 
	d="
M284.999512,532.000000 
	C284.999512,554.882141 284.999512,577.264282 284.999512,599.646362 
	C284.542511,599.645508 284.085480,599.644592 283.628479,599.643677 
	C283.628479,560.217773 283.628479,520.791870 283.628479,481.365936 
	C284.085480,481.354401 284.542511,481.342865 284.999512,481.331329 
	C284.999512,498.054230 284.999512,514.777100 284.999512,532.000000 
z"/>
<path fill="#13A875" opacity="1.000000" stroke="none" 
	d="
M371.999817,537.089478 
	C372.032013,534.312866 372.032013,532.020935 372.032013,529.367676 
	C375.029572,529.367676 377.601318,529.367676 380.588318,529.367676 
	C380.588318,537.566711 380.588318,545.908813 380.588318,554.627380 
	C378.026001,554.627380 375.457825,554.627380 371.967621,554.627380 
	C371.967621,549.022095 371.967621,543.298096 371.999817,537.089478 
z"/>
<path fill="#14A876" opacity="1.000000" stroke="none" 
	d="
M429.000732,545.943604 
	C429.000702,540.162415 429.000702,534.873474 429.000702,529.299316 
	C431.731171,529.299316 433.987274,529.299316 436.625366,529.299316 
	C436.625366,537.658386 436.625366,546.033325 436.625366,554.704651 
	C434.261475,554.704651 432.005249,554.704651 429.000763,554.704651 
	C429.000763,551.959351 429.000763,549.197632 429.000732,545.943604 
z"/>
<path fill="#14A876" opacity="1.000000" stroke="none" 
	d="
M842.821289,528.031982 
	C843.847534,528.878601 844.891907,529.696899 844.905884,530.532532 
	C845.033142,538.114746 844.980530,545.700012 844.980530,553.638550 
	C842.284424,553.638550 839.935120,553.638550 837.277832,553.638550 
	C837.277832,545.125000 837.277832,536.785767 837.277832,528.011780 
	C839.135620,528.011780 840.748535,528.011780 842.821289,528.031982 
z"/>
<path fill="#13A977" opacity="1.000000" stroke="none" 
	d="
M836.745850,522.382996 
	C837.635864,520.035095 838.242737,517.204163 839.918335,516.250122 
	C842.049438,515.036743 845.028625,515.929932 845.708862,518.920532 
	C846.092346,520.606506 845.842834,523.796936 844.985535,524.151672 
	C842.326355,525.251892 838.986145,526.571777 836.745850,522.382996 
z"/>
<path fill="#13A977" opacity="1.000000" stroke="none" 
	d="
M372.006622,521.097900 
	C371.774078,516.362427 374.868469,516.907959 377.462830,517.086487 
	C380.298309,517.281738 381.934235,519.261047 380.813202,521.747803 
	C380.010223,523.528870 377.846161,525.250061 375.928680,525.855286 
	C372.371490,526.978088 371.856171,524.327454 372.006622,521.097900 
z"/>
<path fill="#13A875" opacity="1.000000" stroke="none" 
	d="
M431.431274,517.051514 
	C434.089661,517.096375 437.111237,516.379639 436.856628,519.992432 
	C436.718597,521.950989 435.801727,524.516479 434.351196,525.491455 
	C433.359772,526.157776 430.196838,525.096252 429.137024,523.846802 
	C426.891388,521.199524 427.778473,518.624207 431.431274,517.051514 
z"/>
<path fill="#000000" opacity="1.000000" stroke="none" 
	d="
M776.448425,530.953247 
	C777.112061,537.333191 778.179504,543.767761 771.246460,547.064819 
	C768.417358,548.410217 765.082886,548.693115 761.387451,549.605286 
	C761.387451,540.447388 761.387451,532.111328 761.387451,523.753601 
	C768.341919,521.989380 774.237244,524.703613 776.448425,530.953247 
z"/>
<path fill="#000000" opacity="1.000000" stroke="none" 
	d="
M538.921753,536.840820 
	C537.008423,542.065125 535.352966,546.935974 528.902832,547.549805 
	C522.986145,548.112854 519.104370,544.776489 517.671631,537.269287 
	C516.546631,531.374939 520.329590,526.152344 526.781494,524.692566 
	C531.323792,523.664856 536.645142,527.438232 537.987244,532.641602 
	C538.314087,533.908813 538.631104,535.178589 538.921753,536.840820 
z"/>
<path fill="#000000" opacity="1.000000" stroke="none" 
	d="
M855.521851,556.580933 
	C855.246399,552.434448 858.233459,553.036316 860.508606,553.116211 
	C862.252441,553.177490 863.970093,553.985107 865.992493,554.541443 
	C863.398254,559.383423 859.433899,557.362549 855.521851,556.580933 
z"/>
<path fill="#000000" opacity="1.000000" stroke="none" 
	d="
M863.479614,536.192200 
	C861.278381,540.053101 858.834229,539.708740 856.275757,536.567261 
	C858.383911,533.422607 860.641968,532.718140 863.479614,536.192200 
z"/>
<path fill="#000000" opacity="1.000000" stroke="none" 
	d="
M727.998596,540.188965 
	C727.983521,541.935242 728.506104,543.735901 727.843140,544.479126 
	C726.266602,546.246521 724.306763,548.335144 722.177917,548.795349 
	C718.761230,549.533875 719.016968,546.437683 718.991699,544.127869 
	C718.977234,542.807861 719.045532,541.485413 718.992371,540.167480 
	C718.871277,537.164795 719.156982,534.381042 722.973999,534.044250 
	C727.131531,533.677307 727.732178,536.614868 727.998596,540.188965 
z"/>
<path fill="#000000" opacity="1.000000" stroke="none" 
	d="
M455.877014,548.539429 
	C452.524231,550.360901 449.948303,548.770874 449.399139,546.245422 
	C448.691101,542.989380 449.103668,539.345703 449.817688,536.038269 
	C449.971680,535.325073 453.462006,535.158752 455.426697,535.096863 
	C456.192383,535.072754 457.699524,536.095032 457.660645,536.533630 
	C457.312256,540.461792 456.694183,544.366028 455.877014,548.539429 
z"/>
<path fill="#000000" opacity="1.000000" stroke="none" 
	d="
M556.712036,549.135254 
	C553.274414,546.418701 556.856812,545.615295 557.812744,544.972046 
	C559.084961,544.115967 561.017456,544.240967 562.907043,543.901184 
	C562.829041,548.578552 560.105591,549.201782 556.712036,549.135254 
z"/>
</svg>